<?xml version="1.0" encoding="UTF-8"?>
<svg id="ghostbusters" xmlns="http://www.w3.org/2000/svg" version="1.1" viewBox="0 0 2224.3 1933.2">
  <!-- Generator: Adobe Illustrator 30.5.1, SVG Export Plug-In . SVG Version: 2.1.4 Build 3)  -->
  <defs>
    <style>
      .st0, .st1 {
        fill: #cc2229;
      }

      .st0, .st2 {
        fill-rule: evenodd;
      }

      .st3 {
        fill: #fff;
      }
    </style>
  </defs>
  <path class="st0" d="M1227.3,247.7c464.1,0,842.7,378.6,842.7,842.7s-378.6,842.8-842.7,842.8-842.7-378.6-842.7-842.8S763.1,247.7,1227.3,247.7h0Z"/>
  <path class="st2" d="M1227.3,484.2c333.9,0,606.2,272.3,606.2,606.2s-272.3,606.2-606.2,606.2-606.2-272.3-606.2-606.2,272.3-606.2,606.2-606.2h0Z"/>
  <path class="st3" d="M1844.7,1234.1c25.3-8,46.5-10.5,72.2,9.1,37.5,28.6,87.4,75.8,143.9,73.9,20.3-.7,42-4,42-25.5,0-41.1-73.6-69.9-87.8-105.6,5.7-3.7,25-8.6,32.9-8.4,18.9-2.2,82.9,18.7,128.3,17.1,25.6-.9,46.4-5.4,48-32.3,2.4-40.1-37.5-60.8-85.1-76.1-55.6-18-122.1-26.2-148.5-32.5,10.6-25.9,39.1-51.7,64.6-75.7,24.6-21.2,93.3-52.3,94.3-90.9.7-26.7-19.9-30.6-41.6-31.9-45.7-2.8-80,11.2-119.1,31.2-37.4,19.2-73.6,42.8-113.4,57.8-10.4,3.6-28.2,5.8-46,5.9-18.9.2-37.7-1.8-47.1-6.7-18.4-11.3-26.9-56.3-30-76.7-14.5-93.7-94.6-181.7-174.7-225.2-61.9-33.6-111.6-38.9-169.9-45.2-21.5-2.3-43.5-6.9-64.9-8,0-25.9-12.4-51.2-19.7-76.1-11.9-40.2-35.6-74-49-113.6-17.6-52,4.1-106.1-12.3-159.7,6.2-.1,18-4.3,18.2-10,.4-10.8-11.5-26.8-5.3-29.7,66.4-15.2,102.3-23,124.7-60.3h0c3.3-8.9,7.2-13.5,10.5-22.4.9-10.2-1.5-15.4-6.3-17.4-15.4-6.4-46.7,10.4-71.4,8.5-8.7-.4-16.7-4.7-22-11.6-34.7-34.7-17.6-93.7-82.3-95.9-59.5-2-126.2,32.3-165.1,72-12.2,15.5-22.9,12.6-29.9,12.6-18.6,0-35.3-2.1-51.2,1.6-23.3,5.5-43.9,17.2-62.6,40.1-4.4,5.4-9.6,10.2-15.3,14.1-58.4,40.9-70.1,124.2-105.4,182.6-18.3,30.2-40.4,63.5-67.8,86-33.7,27.7-45.8,60.7-65.3,97.4-27.8,52.2-21.8,85.3-.9,134.2,16,22.5,20.1,43,28.4,72.2-41.6,28.9-100.4,72.5-124.6,116.8-27.7,50.8-84,73.4-123.6,112.5-14.2,10.2-31.1,23-45.3,33.2-63.1-32-124.6-68.2-189.6-97.9-18.9-8.7-114.4-54.2-168.2-50.8-24.9,1.6-43.9,22.1-28.4,42.2,23,29.7,75.2,50.2,94.8,77.7-34.8,28.5-111.9,47.8-107.7,86.5,1.4,12.9,24.8,25.8,51.5,25,32.7-1,60.3-2.5,72.9,1.8-.7,28.8-40.9,50.4-56.8,72.7-7.8,10.9-10.1,22.4.2,36.1,18.2,25.5,100.1-4.7,121.3-11.1,23.6,11.1,80.7,53.7,105,49.8,8.7,1.9,18.2-2.3,26.8-.4,46.1,20.4,65.3,74.5,115.1,84.1,10,1.9,19.1,6.3,28.4-.7,25.9-17.7,22.2-48,7.7-84.3,21.6-6.6,55-15.1,72.9-28.1h0c26.4-19.1,56-33.2,83.1-51.1,22.9-15.1,43.8-19.1,70.1-24.6,2,25.5,8.1,49.2,17.3,73,12.5,32.1,22.3,69.5,39.5,99,44.4,76.5,103.8,159.4,182.1,204.4l-2.9,6.3-6.2,13.2h0c-9.7,14.1-62.3,50.1-74.1,70.5,103.1,80.7,232.7,128.8,373.2,128.8,286.2,0,527.2-199.8,590.7-467.1l25.8,9.6,1-6h0Z"/>
  <path d="M979.5,477.8c2.3-7.9,24.4,12.8,40.5,11.5,5.4-.4,10.5-3.5,13.5-11.9,3.1-8.9,7.5-13.9,11-13.7,2.7.2,3.7,12.7.8,22.9-3.2,11.6-17.7,26.3-30.2,25.6-14.8-.8-39.5-21.3-35.6-34.3h0ZM1114.7,311.3c2,5.5,1.7,11.7.6,25.7s-12.8,32.9-21.3,32.4c-8.5-.5-19-19.4-17.1-40.4,1.6-17.2,11.9-39.5,32.1-37.6,6.8.6,13.3,6.9,17.2,15.3,4,8.3,5.4,18.8,4.9,24.5-.2,2.3-1.3,2.7-1.9,2.8-1,.1-1.8-1.2-3.2-4.7-2.4-5.9-4.6-15.1-11.3-17.8h0ZM974.3,293.3c2.5,4,4.7,8.5,4.7,22.4s-11,37.4-19.7,37.7c-8.7.3-21.1-17.9-21.1-39.5s7.8-41.2,29.1-41.2,14.1,5.8,18.9,13.9c4.8,8.1,7.2,18.5,6.9,24.4,0,2.1-2.5,1.7-3,0-1.2-2.6-2.5-5-4.1-7.4-3.2-4.9-7.6-9.8-11.8-10.3ZM990.1,586.7c18,0,32.6,21.8,32.6,48.4s-14.7,48.4-32.6,48.4-32.6-21.8-32.6-48.4,14.7-48.4,32.6-48.4ZM469.6,1154c8.4-2.2-.4,28.1.8,33.8,22.3-5.6,55.3-13,72.6-30.3,53.1-39.4,106.2-63.5,159.3-81.9,12-2.3,71.7-11.2,66.9,1-7,7.6-25.1,14.4-42.2,17.7-.3,38.2,11.8,82.6,32.2,118.3,36.3,90.8,110.6,179.8,194,232.4,45,28.4,156.2,73.3,256.3,96.3,89.7,20.5,136.1,16.8,160.4,25.1,5.2,16.9-53.2,10-90.5,7.4-107.6-7.6-273.5-67.1-318.4-90.8-15.1,35.8-61.7,65-89.7,90.5-7,6.4-14.1,12.8-18.7,5.3-9.4-15.2,64-63.7,75.7-80.6h0l9.2-19.5c-78.2-45-137.7-127.9-182.1-204.4-17.1-29.5-27-66.9-39.5-99-9.3-23.8-15.3-47.5-17.3-73-26.3,5.4-47.2,9.4-70.1,24.6-27.2,17.9-56.7,32.1-83.1,51.1h0c-18,12.9-51.4,21.5-72.9,28.1,14.6,36.2,18.2,66.6-7.7,84.3-9.3,7-18.3,2.7-28.4.7-49.8-9.6-68.9-63.8-115.1-84.1-8.7-1.9-18.2,2.3-26.8.4-24.3,3.8-81.5-38.8-105-49.8-21.3,6.5-103.1,36.7-121.3,11.1-10.3-13.7-8-25.2-.2-36.1,15.9-22.3,56.1-43.9,56.8-72.7-12.6-4.3-40.2-2.8-72.9-1.8-26.7.8-50.2-12.2-51.5-25-4.2-38.7,72.9-57.9,107.7-86.5-19.6-27.5-71.8-48-94.8-77.7-15.6-20.1,3.4-40.6,28.4-42.2,53.7-3.4,149.3,42.1,168.2,50.8,65,29.7,126.5,65.9,189.6,97.9,14.2-10.2,31.1-23,45.3-33.2,39.5-39,95.9-61.7,123.6-112.5,24.2-44.3,83-87.9,124.6-116.8-8.4-29.2-12.4-49.7-28.4-72.2-20.9-48.9-26.8-81.9.9-134.2,19.5-36.7,31.6-69.7,65.3-97.4,27.4-22.6,49.6-55.8,67.8-86,35.3-58.4,47-141.7,105.4-182.6,5.7-4,10.9-8.7,15.3-14.1,18.8-22.8,39.4-34.6,62.6-40.1,15.9-3.8,32.7-1.6,51.2-1.6,7,0,17.7,2.9,29.9-12.6C1101.7,32.4,1168.4-1.9,1227.9.1c64.7,2.2,47.5,61.1,82.3,95.9,5.3,6.9,13.3,11.1,22,11.6,24.7,1.9,56-14.9,71.4-8.5,4.7,2,7.1,7.2,6.3,17.4-3.3,8.9-7.2,13.5-10.5,22.4h0c-22.4,37.4-58.2,45.1-124.7,60.3-6.1,2.8,5.7,18.9,5.3,29.7-.2,5.7-12,9.9-18.2,10,16.4,53.6-5.3,107.8,12.3,159.7,13.4,39.7,37.1,73.5,49,113.6,7.4,24.9,19.7,50.2,19.7,76.1,21.4,1.1,43.4,5.7,64.9,8,58.2,6.3,108,11.6,169.9,45.2,80.1,43.5,160.2,131.5,174.7,225.2,3.2,20.5,11.7,65.4,30,76.7,9.4,4.9,28.2,6.9,47.1,6.7,17.8-.2,35.7-2.3,46-5.9,39.8-15,76-38.6,113.4-57.8,39.1-20.1,73.4-34,119.1-31.2,21.7,1.3,42.3,5.2,41.6,31.9-.9,38.6-69.7,69.7-94.3,90.9-25.4,24-54,49.8-64.6,75.7,26.4,6.3,92.9,14.5,148.5,32.5,47.5,15.4,87.4,36,85.1,76.1-1.6,27-22.4,31.4-48,32.3-45.3,1.7-109.4-19.2-128.3-17.1-8-.2-27.2,4.7-32.9,8.4,14.2,35.7,87.8,64.5,87.8,105.6,0,21.4-21.7,24.8-42,25.5-56.5,1.9-106.3-45.3-143.9-73.9-31.7-24.1-61.9-8.8-95.9-1.1-24.1,9.8-115,11.2-143.2,3.8-54.6,20.2-91.5,21.2-150,17.7-18.3-7.7-28.4-21.6-28.1-36.9.7-36.2,44-83.9,63.3-102-26.2-22.1-46.3-29.6-55.6-65.5-5.1-19.7,3.6-38.8,12.7-22.4,1.3,2.3,9.2,3,10.1,7h0c9.5,36.1,27.5,44.2,50.3,68,11.6-4.5,8.9-17.2,30.6-23.2,6.7-1,7.3,6.4,3.4,13.5-5,9.2-16.2,19.1-19.6,21.7-13.6,10.8-29.1,18.7-41.2,33.7-8.1,10-31.4,43.2-30,55.2,1.9,17.4,11.6,23.4,23.5,26.4,57.6,14.7,134.6-11.4,196.6-35.1,11.5-4.4,23.3-13.7,32.7-12.6,9.3,10.1-28.7,29.1-53.2,38,19.1,5.3,37.9,7.4,55.5,3.6,36-7.8,69-27.8,105.9-25.3,55.8,3.8,99.1,88.2,166.3,93.5.8,0,1.6.1,2.5.1,12.1.4,22-4,19.7-16.6-8-42.9-82.7-84.7-94.5-101.5-6.6-9.4,57.2-22.3,66.4-22.6,39.2-1.1,82.6,19.1,118.7,14.6,61.4-7.7,7.3-61.6-22.1-69.5-46.1-12.5-102.3-28.5-150.1-36.3-1.3,12,1.7,28.3-5.4,32-11.1.2-13.8-19.6-14.7-39.4-.6-14.4,31.5-54.5,41-65.3,19.2-22.1,41.6-41.2,66.4-56.8,0-8.7,70.9-36.9,34.9-56.9-44-23.3-100.8,11.8-139.7,32.3l-122.3,57.6c-18.9,5.7-26.1,8.8-44.6,15.6-16.7,5.7-1.1-15.7-.1-21.9-17.8.5-40.6,2.8-60.7,5-29.8-12.9-19.2-84.6-31.3-116.7-30.5-79.8-87.7-157.2-163-196.4-29.9-15.6-60-29.5-92.7-35.8-39.5-7.6-81.8-6.3-121-11.6-10.8,66.6-34.3,103.1-78,154.3-6.3,7.4-6.6,6.5-8.3,5-1-.9-7.9,3.2-2-5.9,33.4-51.5,73.7-111.5,70.1-164-3.2-47-15.4-81.7-39.1-123.4-12.4-21.9-20.4-41.7-25.9-62.6-14.9-57.1,7.7-112.1-14.9-171.1-3.3-25.9-24.4-49.7-29.6-65-2.3-6.8,4.6-10.9,10-4.4,10.3,12.5,17.5,30.1,27.8,42.6-.4-13.1,2.1-27.3,11.5-29.7,7.9-2,19.8-1.5,28.9-5.9,9,2.3,103.3-31.9,98.3-58.4-2-10.9-40.2,6.6-48.9,7.7h0c-1.4.1-2.8.2-4.2.2-72.1,0-57.4-99.2-112-103.4-9.5-.7-20.5-2.1-33.1,1.9-72.9,3.6-108.2,81.5-169,78.3-27.9-1.5-61.5,3.9-81,27-9.3,11.1-21.4,25.7-33.3,34-24.3,17-38.3,60.6-53.5,89.4-21,53.8-54.5,108-92.8,151-16.4,18.4-43.2,38.4-53.4,60.9-17.8,39.1-42.9,70.2-34.5,115.3,5.4,29.1,29.7,84.1,42.6,106.2,4.8,8.3,17.2,28.5,29,47,10.4,16.2,22.3,32.1,11.8,39.6-4.7,3.4-27.5-35.2-50.7-50.6-29,20.4-53.9,42.5-81.3,64.3-29.8,23.8-42.5,58.8-70.3,85.5-20.8,19.9-42.4,38.1-66.4,54.1-23.7,15.8-44.2,40.3-68.5,54.9,6,2.5,41.3,9.8,36.6,19.2-5.8,11.8-36.9,3.5-53.2-1.7-25.8-8.2-52.5-21.2-66-31.3-15.8-8.5-154.9-85.3-163-89.2-38.8-18.8-92-36.4-118.2-37.2-8.8-.3-14.9.2-17.1,5.8-2.8,2.9-3.4,7.2-1.7,10.8,6.7,16.2,50.8,37.6,70.9,54.5,10.1,8.5,54.3,43.5,50.5,67.2-1.8,10.9-31.4-15-40.5-25.7-15.1,9-33.1,20.9-48.1,30.1h0c-5.1,3.1-44.6,27-41.1,32.1-1.6,35.5,81,18.9,107.1,23.8,17,3.1,56.3,34.3,45.5,43-2.9,2-7.1-2.6-11.7-5.1-10.2-5.4-22.1-14.1-25.1-14.6-9.8,19.3-28.5,47.3-45.2,60.7-.7.6-9.9,7.8-9.6,8.5l.2,3.9c-2.7,10.9,1.8,16,10,17.4,18,3.2,58.7-8.8,73-14-9.6-10.6-9.1-32.6.1-28,17.1,8.5,77.9,56.1,100.6,70.1,5.2-7.6,4.7-16.5,10.6-18.9,17.7-7.3,40.4,16,58.9,24.1,40.2,17.8,49.2,46.8,81.7,71.6,8.9,6.8,22.7,5.7,33.3,8.1,17-23.5,0-42.3-4.6-65.6-4.6-17.8,11.4-49.9,17.9-51.6h0ZM88.2,1136.7c-.1,0-.2,0-.3.1.1,0,.2-.1.3-.1ZM951,243.9c-1.7,9.7-5.9,13.6-11.1,14.4-4.6.7-8.9-4.6-7.8-13.9,2.2-19.2,25.1-39.5,39.6-45.7,6.6-2.9,11.8-3,12,1.2.2,4-30.2,18.6-31.5,34.3-.4,3.3-.8,6.5-1.2,9.8h0ZM1099.7,204.3c4-4.2,8.7-.5,13.6.4,21.3,4,46.9,42.5,39.5,50.8-3.5,2-18.2-9.6-31.3-22.4-13.1-12.8-27-24.2-21.8-28.8h0Z"/>
  <path class="st1" d="M1848.4,910.9l-117-235.2-1204.4,619.6,113.1,239.1,1208.2-623.6Z"/>
</svg>