<?xml version="1.0" encoding="UTF-8"?>
<svg id="blog" xmlns="http://www.w3.org/2000/svg" width="500" height="500" viewBox="0 0 500 500">
  <g id="blog-2" data-name="blog">
    <path id="frame" d="m394.35,204.71c-.46,9.32-7.53,20.83-18.92,31.88v145.72c-.01,3.75-1.49,6.93-3.99,9.42-2.51,2.44-5.77,3.88-9.59,3.9H124.36c-3.8-.02-7.07-1.47-9.58-3.9-2.5-2.49-3.96-5.67-3.98-9.42v-232.88c.01-3.74,1.48-6.93,3.98-9.42,2.51-2.44,5.78-3.88,9.58-3.9h126.13c10.2-13.39,22.09-27.11,35.56-39.69.06-.07.11-.15.17-.22H124.36c-14.91-.01-28.62,5.99-38.37,15.58-9.8,9.59-15.92,23.01-15.9,37.65v232.88c-.01,14.64,6.1,28.08,15.9,37.65,9.75,9.59,23.46,15.58,38.37,15.58h237.49c14.94,0,28.64-5.99,38.39-15.58,9.78-9.57,15.9-23.01,15.89-37.65v-192.12s-.1-.12-.26-.25c-6.18,5.29-13.37,10.34-21.52,14.76Z"/>
    <path id="feather" d="m455.57,28.4s-12.48,18.64-93.96,46.21c-83.09,28.12-134.23,142.51-134.23,142.51-12.31,23.43-60.98,120.8-60.98,120.8-13.41,25.15,11.16,40.01,25.57,14.04,27.62-49.85,45.45-95.4,87.45-96.69,61.27-1.89,103.17-55.39,89.98-52.91-17.35,7.55-55.59.57-33.06-2.91,54.08-4.34,87.4-44.98,76.54-47.74-19.17,7.38-37.05.37-40.56-1.74,95.44-11.61,83.25-121.57,83.25-121.57Z"/>
  </g>
</svg>