<?xml version="1.0" encoding="UTF-8"?>
<svg id="css" xmlns="http://www.w3.org/2000/svg" width="500" height="500" viewBox="0 0 500 500">
  <defs>
    <style>
      .cls-1 {
        fill: #ebebeb;
      }

      .cls-2 {
        fill: #fff;
      }

      .cls-3 {
        fill: #2965f1;
      }

      .cls-4 {
        fill: #264de4;
      }
    </style>
  </defs>
  <g id="css-2" data-name="css">
    <polygon id="background" class="cls-4" points="402.71 119.17 374.89 430.88 249.81 465.56 125.08 430.93 97.29 119.17 402.71 119.17"/>
    <polygon id="shadow" class="cls-3" points="351.07 411.03 374.85 144.66 250 144.66 250 439.05 351.07 411.03"/>
    <polygon id="number-3-left-bottom" class="cls-1" points="250 399.37 250 359.59 249.83 359.64 207.25 348.14 204.53 317.64 183.83 317.64 166.14 317.64 171.5 377.68 249.82 399.42 250 399.37"/>
    <polygon id="number-3-left-middle" class="cls-1" points="161.01 260.29 164.43 298.52 250 298.52 250 260.29 161.01 260.29"/>
    <polygon id="number-3-left-top" class="cls-1" points="250 182.9 249.87 182.9 154.12 182.9 157.6 221.13 250 221.13 250 182.9"/>
    <polygon id="number-3-right" class="cls-2" points="296.95 298.52 292.51 348.11 249.87 359.62 249.87 399.4 328.25 377.68 328.83 371.22 337.81 270.55 338.75 260.29 345.65 182.9 249.87 182.9 249.87 221.13 303.75 221.13 300.27 260.29 249.87 260.29 249.87 298.52 296.95 298.52"/>
    <path id="letter-s2" d="m280.31,34.44h46.31v16.84h-26.94v3.37h26.94v38.73h-46.31v-17.68h26.94v-3.37h-26.94v-37.89Z"/>
    <path id="letter-s1" d="m224.74,34.44h46.31v16.84h-26.94v3.37h26.94v38.73h-46.31v-17.68h26.94v-3.37h-26.94v-37.89Z"/>
    <path id="letter-c" d="m169.17,34.44h46.31v19.37h-26.94v19.37h26.94v19.37h-46.31v-58.1Z"/>
  </g>
</svg>