<?xml version="1.0" encoding="utf-8"?>
<!-- Generator: Adobe Illustrator 27.5.0, SVG Export Plug-In . SVG Version: 6.00 Build 0)  -->
<svg version="1.1" id="dark" xmlns:sketch="http://www.bohemiancoding.com/sketch/ns"
	 xmlns="http://www.w3.org/2000/svg" xmlns:xlink="http://www.w3.org/1999/xlink" x="0px" y="0px" viewBox="0 0 50 50"
	 style="enable-background:new 0 0 50 50;" xml:space="preserve">
<style type="text/css">
	.st0{fill-rule:evenodd;clip-rule:evenodd;fill:#323232;}
	.st1{fill-rule:evenodd;clip-rule:evenodd;fill:#505050;}
	.st2{fill-rule:evenodd;clip-rule:evenodd;}
	.st3{fill-rule:evenodd;clip-rule:evenodd;fill:#1A1A1A;}
	.st4{fill-rule:evenodd;clip-rule:evenodd;fill:#FFFFFF;}
</style>
<g id="darth-vader" transform="translate(252.000000, 1251.000000)">
	<path id="Fill-1" class="st0" d="M-209.5-1211.5c0.4-0.3,1.2-0.5,1.6-0.8l-5.9-14.1c0,0-5.3-15.8-11.8-15.8h-2.8
		c-6.5,0-11.8,15.8-11.8,15.8l-5.9,14.1c0.3,0.3,1.2,0.6,1.6,0.8H-209.5z"/>
	<path id="Fill-3" class="st1" d="M-238-1222.4l4.4,7.7l5.5-7.7H-238z"/>
	<path id="Fill-5" class="st1" d="M-220.4-1214.8l4.4-7.7h-9.9L-220.4-1214.8z"/>
	<path id="Fill-7" class="st2" d="M-236.9-1224.9c0-0.8,0.4-1.9,0.9-2.4c0,0,1.4-1.7,4.2-1.7c1.4,0,2.4,0.6,2.4,0.6
		c0.7,0.4,1.2,1.4,1.2,2.1v2.1c0,0.4-0.7,0.7-1.5,0.7h-5.8C-236.2-1223.5-236.9-1224.1-236.9-1224.9"/>
	<path id="Fill-9" class="st2" d="M-218.6-1223.5h-5.8c-0.8,0-1.5-0.3-1.5-0.7v-2.1c0-0.8,0.6-1.7,1.2-2.1c0,0,1-0.6,2.4-0.6
		c2.8,0,4.2,1.7,4.2,1.7c0.5,0.6,0.9,1.7,0.9,2.4C-217.1-1224.1-217.8-1223.5-218.6-1223.5"/>
	<path id="Fill-11" class="st2" d="M-213.8-1229v-2.5c0-6.4-5.1-11.5-11.4-11.8c-0.3-0.3-0.7-0.6-1.2-0.6h-1.1
		c-0.5,0-0.9,0.2-1.2,0.6c-6.3,0.2-11.4,5.4-11.4,11.8v2.5l-6.6,17.5h2.2l5.8-14.1c1.5-3.7,3.5-5.3,6.9-5.3c2.3,0,3.7,1.8,3.8,1.8
		h2.2c0.1-0.1,1.5-1.8,3.8-1.8c3.3,0,5.4,1.6,6.9,5.3l5.8,14.1h2.2L-213.8-1229z"/>
	<path id="Fill-13" class="st3" d="M-236.9-1232.3c-0.3,0-0.5-0.2-0.5-0.5c0-4.2,3.4-7.7,7.7-7.7c0.3,0,0.5,0.2,0.5,0.5
		c0,0.3-0.2,0.5-0.5,0.5c-3.7,0-6.7,3-6.7,6.7C-236.4-1232.5-236.6-1232.3-236.9-1232.3"/>
	<path id="Fill-15" class="st4" d="M-227-1222.4c-0.6,0-1.1,0.5-1.1,1.1v1.1h2.2v-1.1C-225.9-1221.9-226.4-1222.4-227-1222.4
		 M-218.8-1211.5c-0.6,0-1.1,0.5-1.1,1.1c0,0.6,0.5,1.1,1.1,1.1c0.6,0,1.1-0.5,1.1-1.1C-217.7-1211-218.2-1211.5-218.8-1211.5
		 M-235.2-1211.5c-0.6,0-1.1,0.5-1.1,1.1c0,0.6,0.5,1.1,1.1,1.1c0.6,0,1.1-0.5,1.1-1.1C-234.1-1211-234.6-1211.5-235.2-1211.5"/>
	<path id="Fill-17" class="st2" d="M-217.7-1212.3l1.7-10.1l-4.4,7.7l-4.4-6.1v-0.4c0-1.2-1-2.2-2.2-2.2c-1.2,0-2.2,1-2.2,2.2v0.4
		l-4.4,6.1l-4.4-7.7l1.7,10.1c-0.7,0.4-1.1,1.1-1.1,1.9c0,1.2,1,2.2,2.2,2.2c0.8,0,1.5-0.4,1.9-1.1h12.7c0.4,0.7,1.1,1.1,1.9,1.1
		c1.2,0,2.2-1,2.2-2.2C-216.6-1211.2-217-1211.9-217.7-1212.3"/>
	<path id="Fill-20" class="st0" d="M-231.4-1211.5h2.2v-5.8l-2.2,3V-1211.5z"/>
	<path id="Fill-22" class="st0" d="M-224.8-1217.2v5.8h2.2v-2.8L-224.8-1217.2z"/>
	<path id="Fill-24" class="st0" d="M-228.1-1211.5h2.2v-6.6h-2.2V-1211.5z"/>
	<path id="Fill-26" class="st4" d="M-227-1222.4c-0.6,0-1.1,0.5-1.1,1.1v1.1h2.2v-1.1C-225.9-1221.9-226.4-1222.4-227-1222.4
		 M-218.8-1211.5c-0.6,0-1.1,0.5-1.1,1.1c0,0.6,0.5,1.1,1.1,1.1c0.6,0,1.1-0.5,1.1-1.1C-217.7-1211-218.2-1211.5-218.8-1211.5
		 M-235.2-1211.5c-0.6,0-1.1,0.5-1.1,1.1c0,0.6,0.5,1.1,1.1,1.1c0.6,0,1.1-0.5,1.1-1.1C-234.1-1211-234.6-1211.5-235.2-1211.5"/>
</g>
</svg>
