<?xml version="1.0" encoding="UTF-8"?>
<svg id="dz-loading-monocolor" xmlns="http://www.w3.org/2000/svg" width="500" height="500" viewBox="0 0 500 500">
  <g id="zd">
    <polyline id="letter-d-bottom" points="381.31 242.35 424.62 267.43 313.16 336.02 227.42 336.02 381.75 241.71"/>
    <polygon id="letter-d-top" points="424.62 215.98 424.62 267.43 381.31 242.35 313.16 202.89 306.15 198.84 261.71 173.11 313.16 147.39 424.62 215.98"/>
    <polygon id="letter-d-left" points="313.16 202.89 313.16 283.84 311.93 284.58 261.71 284.58 261.71 173.11 306.15 198.84 313.16 202.89"/>
    <polyline id="letter-z-bottom" points="227.42 336.02 124.53 336.02 107.38 284.58 311.93 284.58"/>
    <polygon id="letter-z-center" points="244.57 198.84 169.54 284.58 107.38 284.58 187.77 198.84 235.99 147.39 244.57 198.84"/>
    <polygon id="letter-z-top" points="235.99 147.39 187.77 198.84 107.38 198.84 107.38 147.39 235.99 147.39"/>
  </g>
  <path id="circle" d="m247.38,22.34C126.22,22.34,28.02,120.55,28.02,241.71s98.21,219.36,219.36,219.36,219.36-98.21,219.36-219.36S368.54,22.34,247.38,22.34Zm0,404.45c-102.22,0-185.09-82.86-185.09-185.09S145.15,56.62,247.38,56.62s185.09,82.86,185.09,185.09-82.86,185.09-185.09,185.09Z"/>
</svg>