<?xml version="1.0" encoding="UTF-8"?>
<svg id="github" xmlns="http://www.w3.org/2000/svg" width="500" height="500" viewBox="0 0 500 500">
  <defs>
    <style>
      .cls-1 {
        fill: #1b1f23;
        fill-rule: evenodd;
      }
    </style>
  </defs>
  <path id="github-2" data-name="github" class="cls-1" d="m250,44.22c-116.57,0-210.99,94.42-210.99,210.99,0,93.36,60.4,172.22,144.26,200.18,10.55,1.85,14.51-4.48,14.51-10.02,0-5.01-.26-21.63-.26-39.3-53.01,9.76-66.73-12.92-70.94-24.79-2.37-6.07-12.66-24.79-21.63-29.8-7.38-3.96-17.93-13.71-.26-13.98,16.62-.26,28.48,15.3,32.44,21.63,18.99,31.91,49.32,22.95,61.45,17.41,1.85-13.71,7.38-22.95,13.45-28.22-46.94-5.27-96-23.47-96-104.18,0-22.95,8.18-41.93,21.63-56.7-2.11-5.27-9.49-26.9,2.11-55.91,0,0,17.67-5.54,58.02,21.63,16.88-4.75,34.81-7.12,52.75-7.12s35.87,2.37,52.75,7.12c40.35-27.43,58.02-21.63,58.02-21.63,11.6,29.01,4.22,50.64,2.11,55.91,13.45,14.77,21.63,33.49,21.63,56.7,0,80.97-49.32,98.9-96.26,104.18,7.65,6.59,14.24,19.25,14.24,39.03,0,28.22-.26,50.9-.26,58.02,0,5.54,3.96,12.13,14.51,10.02,83.34-27.96,143.74-107.08,143.74-200.18,0-116.57-94.42-210.99-210.99-210.99Z"/>
</svg>