<?xml version="1.0" encoding="UTF-8"?>
<svg id="html" xmlns="http://www.w3.org/2000/svg" width="500" height="500" viewBox="0 0 500 500">
  <defs>
    <style>
      .cls-1 {
        fill: #ebebeb;
      }

      .cls-2 {
        fill: #fff;
      }

      .cls-3 {
        fill: #f16529;
      }

      .cls-4 {
        fill: #e44d26;
      }
    </style>
  </defs>
  <g id="html-2" data-name="html">
    <path id="background" class="cls-4" d="m125.07,431l-27.78-311.83h305.43l-27.78,311.66-125.18,34.68"/>
    <path id="shadow" class="cls-3" d="m250,439V144.77h124.85l-23.82,266.03"/>
    <path id="number-right" class="cls-1" d="m154.03,182.9h95.97v38.22h-54.05l3.54,39.15h50.51v38.14h-85.53m1.68,19.19h38.39l2.69,30.56,42.77,11.45v39.9l-78.46-21.89"/>
    <path id="number-left" class="cls-2" d="m345.64,182.9h-95.8v38.22h92.27m-3.45,39.15h-88.82v38.22h47.14l-4.46,49.67-42.68,11.45v39.74l78.29-21.72"/>
    <path id="letter-l" d="m328.04,34.48h19.36v38.89h27.44v19.19h-46.81"/>
    <polyline id="letter-m" points="252.95 34.48 273.24 34.48 285.69 54.94 298.15 34.48 318.44 34.48 318.44 92.57 299.08 92.57 299.08 63.78 285.53 84.66 271.97 63.78 271.97 92.57 252.95 92.57"/>
    <polyline id="letter-t" points="207.91 53.85 190.82 53.85 190.82 34.48 244.44 34.48 244.44 53.85 227.27 53.85 227.27 92.57 207.91 92.57"/>
    <polyline id="letter-h" points="125.74 34.48 145.1 34.48 145.1 53.68 162.95 53.68 162.95 34.48 182.31 34.48 182.31 92.57 162.95 92.57 162.95 73.21 145.27 73.21 145.27 92.57 125.74 92.57"/>
  </g>
</svg>