<?xml version="1.0" encoding="UTF-8"?>
<svg id="instagram" xmlns="http://www.w3.org/2000/svg" width="500" height="500" xmlns:xlink="http://www.w3.org/1999/xlink" viewBox="0 0 500 500">
  <defs>
    <style>
      .cls-1 {
        fill: #fff;
      }

      .cls-2 {
        fill: url(#radial-gradient-3);
      }

      .cls-3 {
        fill: url(#radial-gradient-4);
      }

      .cls-4 {
        fill: url(#radial-gradient-2);
      }

      .cls-5 {
        fill: url(#radial-gradient);
      }
    </style>
    <radialGradient id="radial-gradient" cx="519.82" cy="-562.69" fx="519.82" fy="-562.69" r="22.03" gradientTransform="translate(7895.99 3276.71) rotate(164.25) scale(12.2 -8.79)" gradientUnits="userSpaceOnUse">
      <stop offset="0" stop-color="#ff005f"/>
      <stop offset="1" stop-color="#fc01d8"/>
    </radialGradient>
    <radialGradient id="radial-gradient-2" cx="366.65" cy="-560.13" fx="366.65" fy="-560.13" r="22.03" gradientTransform="translate(-8909.86 6083.23) rotate(-90) scale(15.25 -16.18)" gradientUnits="userSpaceOnUse">
      <stop offset="0" stop-color="#fc0"/>
      <stop offset=".12" stop-color="#fc0"/>
      <stop offset=".57" stop-color="#fe4a05"/>
      <stop offset=".69" stop-color="#ff0f3f"/>
      <stop offset="1" stop-color="#fe0657" stop-opacity="0"/>
    </radialGradient>
    <radialGradient id="radial-gradient-3" cx="269.52" cy="-580.5" fx="269.52" fy="-580.5" r="27.35" gradientTransform="translate(-3745.52 -288.19) rotate(-59.87) scale(5.08 -6.61)" gradientUnits="userSpaceOnUse">
      <stop offset="0" stop-color="#fc0"/>
      <stop offset="1" stop-color="#fc0" stop-opacity="0"/>
    </radialGradient>
    <radialGradient id="radial-gradient-4" cx="445.27" cy="250.97" fx="445.27" fy="250.97" r="28.23" gradientTransform="translate(3915.59 -1855.29) rotate(164.27) scale(9.42 -3.21)" gradientUnits="userSpaceOnUse">
      <stop offset="0" stop-color="#780cff"/>
      <stop offset="1" stop-color="#820bff" stop-opacity="0"/>
    </radialGradient>
  </defs>
  <g id="instagram-2" data-name="instagram">
    <path id="background" class="cls-5" d="m250.07,39.62c-87.83,0-113.52.09-118.51.5-18.02,1.5-29.24,4.34-41.46,10.42-9.42,4.68-16.84,10.1-24.17,17.7-13.35,13.86-21.44,30.91-24.37,51.18-1.42,9.84-1.84,11.85-1.92,62.11-.03,16.75,0,38.8,0,68.38,0,87.78.1,113.45.52,118.44,1.46,17.54,4.21,28.58,10.03,40.66,11.13,23.11,32.39,40.46,57.44,46.93,8.67,2.23,18.25,3.46,30.55,4.05,5.21.23,58.31.39,111.45.39s106.27-.06,111.35-.32c14.24-.67,22.51-1.78,31.65-4.14,25.21-6.51,46.08-23.6,57.44-47.03,5.71-11.78,8.61-23.24,9.92-39.87.28-3.63.4-61.43.4-119.15s-.13-115.43-.41-119.05c-1.33-16.9-4.22-28.26-10.12-40.27-4.84-9.83-10.21-17.17-18.01-24.68-13.92-13.3-30.94-21.39-51.22-24.32-9.83-1.42-11.79-1.84-62.07-1.93h-68.47Z"/>
    <path id="gradient-bottom-left" class="cls-4" d="m250.07,39.62c-87.83,0-113.52.09-118.51.5-18.02,1.5-29.24,4.34-41.46,10.42-9.42,4.68-16.84,10.1-24.17,17.7-13.35,13.86-21.44,30.91-24.37,51.18-1.42,9.84-1.84,11.85-1.92,62.11-.03,16.75,0,38.8,0,68.38,0,87.78.1,113.45.52,118.44,1.46,17.54,4.21,28.58,10.03,40.66,11.13,23.11,32.39,40.46,57.44,46.93,8.67,2.23,18.25,3.46,30.55,4.05,5.21.23,58.31.39,111.45.39s106.27-.06,111.35-.32c14.24-.67,22.51-1.78,31.65-4.14,25.21-6.51,46.08-23.6,57.44-47.03,5.71-11.78,8.61-23.24,9.92-39.87.28-3.63.4-61.43.4-119.15s-.13-115.43-.41-119.05c-1.33-16.9-4.22-28.26-10.12-40.27-4.84-9.83-10.21-17.17-18.01-24.68-13.92-13.3-30.94-21.39-51.22-24.32-9.83-1.42-11.79-1.84-62.07-1.93h-68.47Z"/>
    <path id="gradient-bottom" class="cls-2" d="m250.07,39.62c-87.83,0-113.52.09-118.51.5-18.02,1.5-29.24,4.34-41.46,10.42-9.42,4.68-16.84,10.1-24.17,17.7-13.35,13.86-21.44,30.91-24.37,51.18-1.42,9.84-1.84,11.85-1.92,62.11-.03,16.75,0,38.8,0,68.38,0,87.78.1,113.45.52,118.44,1.46,17.54,4.21,28.58,10.03,40.66,11.13,23.11,32.39,40.46,57.44,46.93,8.67,2.23,18.25,3.46,30.55,4.05,5.21.23,58.31.39,111.45.39s106.27-.06,111.35-.32c14.24-.67,22.51-1.78,31.65-4.14,25.21-6.51,46.08-23.6,57.44-47.03,5.71-11.78,8.61-23.24,9.92-39.87.28-3.63.4-61.43.4-119.15s-.13-115.43-.41-119.05c-1.33-16.9-4.22-28.26-10.12-40.27-4.84-9.83-10.21-17.17-18.01-24.68-13.92-13.3-30.94-21.39-51.22-24.32-9.83-1.42-11.79-1.84-62.07-1.93h-68.47Z"/>
    <path id="gradient-top-left" class="cls-3" d="m250.07,39.62c-87.83,0-113.52.09-118.51.5-18.02,1.5-29.24,4.34-41.46,10.42-9.42,4.68-16.84,10.1-24.17,17.7-13.35,13.86-21.44,30.91-24.37,51.18-1.42,9.84-1.84,11.85-1.92,62.11-.03,16.75,0,38.8,0,68.38,0,87.78.1,113.45.52,118.44,1.46,17.54,4.21,28.58,10.03,40.66,11.13,23.11,32.39,40.46,57.44,46.93,8.67,2.23,18.25,3.46,30.55,4.05,5.21.23,58.31.39,111.45.39s106.27-.06,111.35-.32c14.24-.67,22.51-1.78,31.65-4.14,25.21-6.51,46.08-23.6,57.44-47.03,5.71-11.78,8.61-23.24,9.92-39.87.28-3.63.4-61.43.4-119.15s-.13-115.43-.41-119.05c-1.33-16.9-4.22-28.26-10.12-40.27-4.84-9.83-10.21-17.17-18.01-24.68-13.92-13.3-30.94-21.39-51.22-24.32-9.83-1.42-11.79-1.84-62.07-1.93h-68.47Z"/>
    <path id="camera" class="cls-1" d="m250.09,93.65c-42.49,0-47.82.19-64.51.94-16.65.76-28.02,3.4-37.97,7.26-10.29,3.99-19.02,9.33-27.71,18.03-8.7,8.69-14.05,17.41-18.06,27.69-3.88,9.94-6.52,21.31-7.27,37.94-.75,16.67-.94,22.01-.94,64.46s.19,47.77.95,64.44c.77,16.64,3.4,28,7.27,37.94,4,10.28,9.34,19,18.04,27.69,8.69,8.7,17.42,14.05,27.7,18.04,9.95,3.87,21.33,6.5,37.98,7.26,16.69.76,22.02.94,64.5.94s47.81-.19,64.49-.94c16.65-.76,28.04-3.4,37.99-7.26,10.29-3.99,19-9.35,27.69-18.04,8.7-8.69,14.05-17.41,18.06-27.69,3.85-9.94,6.49-21.31,7.27-37.94.75-16.67.95-21.99.95-64.45s-.2-47.78-.95-64.46c-.78-16.64-3.42-28-7.27-37.94-4.01-10.28-9.35-19-18.06-27.69-8.7-8.7-17.4-14.04-27.7-18.03-9.97-3.87-21.35-6.5-38-7.26-16.69-.76-22-.94-64.5-.94h.05Zm-14.03,28.17c4.17,0,8.81,0,14.03,0,41.77,0,46.72.15,63.22.9,15.25.7,23.53,3.24,29.05,5.38,7.3,2.83,12.51,6.22,17.98,11.69,5.48,5.47,8.86,10.68,11.71,17.98,2.14,5.5,4.69,13.78,5.39,29.02.75,16.48.91,21.43.91,63.15s-.16,46.67-.91,63.15c-.7,15.24-3.25,23.51-5.39,29.02-2.84,7.3-6.23,12.49-11.71,17.96-5.48,5.47-10.67,8.86-17.98,11.69-5.51,2.15-13.79,4.69-29.05,5.39-16.49.75-21.45.91-63.22.91s-46.72-.16-63.22-.91c-15.25-.7-23.53-3.25-29.05-5.39-7.3-2.83-12.52-6.22-17.99-11.69-5.48-5.47-8.87-10.67-11.71-17.97-2.14-5.5-4.69-13.78-5.39-29.02-.75-16.48-.9-21.43-.9-63.18s.15-46.67.9-63.15c.7-15.24,3.25-23.51,5.39-29.02,2.84-7.3,6.23-12.51,11.71-17.98,5.48-5.47,10.69-8.86,17.99-11.7,5.51-2.15,13.8-4.69,29.05-5.39,14.43-.65,20.02-.85,49.18-.88v.04Zm97.54,25.96c-10.36,0-18.77,8.39-18.77,18.75s8.41,18.76,18.77,18.76,18.77-8.4,18.77-18.76-8.41-18.76-18.77-18.76h0Zm-83.51,21.92c-44.37,0-80.34,35.95-80.34,80.28s35.97,80.26,80.34,80.26,80.33-35.93,80.33-80.26-35.96-80.28-80.33-80.28h0Zm0,28.17c28.8,0,52.15,23.33,52.15,52.11s-23.35,52.11-52.15,52.11-52.15-23.33-52.15-52.11,23.35-52.11,52.15-52.11h0Z"/>
  </g>
</svg>