<?xml version="1.0" encoding="UTF-8"?>
<svg id="javascript" xmlns="http://www.w3.org/2000/svg" width="500" height="500" viewBox="0 0 500 500">
  <defs>
    <style>
      .cls-1 {
        fill: #f7df1e;
      }
    </style>
  </defs>
  <g id="javascript-2" data-name="javascript">
    <rect id="background" class="cls-1" x="46.37" y="46.37" width="407.27" height="407.27"/>
    <path id="text" d="m319.95,364.55c8.2,13.39,18.88,23.24,37.75,23.24,15.86,0,25.99-7.93,25.99-18.88,0-13.12-10.41-17.77-27.86-25.41l-9.57-4.1c-27.62-11.77-45.96-26.5-45.96-57.66,0-28.7,21.87-50.55,56.05-50.55,24.33,0,41.83,8.47,54.43,30.64l-29.8,19.14c-6.56-11.77-13.64-16.4-24.63-16.4s-18.31,7.11-18.31,16.4c0,11.48,7.11,16.13,23.53,23.24l9.57,4.1c32.52,13.94,50.88,28.16,50.88,60.12,0,34.46-27.07,53.33-63.42,53.33s-58.5-16.94-69.74-39.14l31.1-18.07Zm-135.19,3.32c6.01,10.67,11.48,19.68,24.63,19.68s20.51-4.92,20.51-24.05v-130.13h38.27v130.65c0,39.63-23.23,57.66-57.15,57.66-30.64,0-48.39-15.86-57.41-34.96l31.15-18.86Z"/>
  </g>
</svg>