<?xml version="1.0" encoding="UTF-8"?>
<svg id="linkedin" xmlns="http://www.w3.org/2000/svg" width="500" height="500" viewBox="0 0 500 500">
  <defs>
    <style>
      .cls-1 {
        fill: #fff;
      }

      .cls-1, .cls-2 {
        fill-rule: evenodd;
      }

      .cls-2 {
        fill: #007ebb;
      }
    </style>
  </defs>
  <g id="linkedin-2" data-name="linkedin">
    <path id="background" class="cls-2" d="m85.21,461.87h329.57c26,0,47.08-21.08,47.08-47.08V85.21c0-26-21.08-47.08-47.08-47.08H85.21c-26,0-47.08,21.08-47.08,47.08v329.57c0,26,21.08,47.08,47.08,47.08Z"/>
    <path id="text-in" class="cls-1" d="m403.02,403.02h-62.88v-107.1c0-29.36-11.16-45.77-34.4-45.77-25.28,0-38.49,17.08-38.49,45.77v107.1h-60.6v-204.02h60.6v27.48s18.22-33.71,61.51-33.71,74.26,26.43,74.26,81.08v129.17ZM134.35,172.28c-20.64,0-37.37-16.86-37.37-37.65s16.73-37.65,37.37-37.65,37.36,16.86,37.36,37.65-16.72,37.65-37.36,37.65Zm-31.29,230.74h63.19v-204.02h-63.19v204.02Z"/>
  </g>
</svg>