<?xml version="1.0" encoding="UTF-8"?>
<svg id="linux" xmlns="http://www.w3.org/2000/svg" width="500" height="500" viewBox="0 0 500 500">
  <defs>
    <style>
      .cls-1 {
        fill: #ffc107;
      }

      .cls-2 {
        fill: #eceff1;
      }

      .cls-3 {
        fill: #212121;
      }

      .cls-4 {
        fill: #455a64;
      }

      .cls-5 {
        fill: #634703;
      }

      .cls-6 {
        fill: #263238;
      }
    </style>
  </defs>
  <g id="linux-2" data-name="linux">
    <polygon id="body-white" class="cls-2" points="198.41 156.51 199.6 183.83 180.59 219.47 150.89 277.69 144.95 326.4 166.33 395.31 215.04 422.63 288.7 422.63 357.61 370.36 388.5 288.38 317.22 201.65 297.02 152.94 198.41 156.51"/>
    <path id="body-black" class="cls-6" d="m367.12,224.23c-19.01-27.33-34.45-43.96-42.77-78.41-8.32-34.45,2.38-24.95-4.75-54.65-3.56-15.44-9.5-26.14-15.44-34.45-7.13-8.32-15.44-13.07-20.2-14.26-10.69-5.94-35.64-15.44-66.53,1.19-32.08,16.63-28.51,52.27-22.57,124.75,0,4.75-1.19,10.69-3.56,15.44-4.75,10.69-13.07,20.2-20.2,28.51-8.32,11.88-16.63,23.76-22.57,36.83-14.26,27.33-27.33,61.78-23.76,74.85,5.94-1.19,80.79,112.87,80.79,115.24,4.75-1.19,24.95-1.19,42.77-1.19,24.95-1.19,39.21-2.38,59.4,2.38,0-3.56-1.19-7.13-1.19-10.69,0-7.13,1.19-13.07,2.38-21.39,1.19-5.94,2.38-11.88,3.56-19.01-11.88,10.69-33.27,22.57-53.46,26.14-17.82,3.56-47.52-2.38-61.78-20.2,1.19,0,3.56,0,4.75-1.19,3.56-1.19,7.13-2.38,8.32-4.75,3.56-5.94,1.19-11.88-1.19-15.44-2.38-3.56-20.2-16.63-28.51-23.76-8.32-7.13-13.07-10.69-17.82-15.44,0,0-7.13-7.13-9.5-9.5-2.38-2.38-3.56-4.75-4.75-5.94-2.38-5.94-3.56-13.07-2.38-22.57,1.19-13.07,5.94-23.76,11.88-35.64,2.38-4.75,8.32-14.26,8.32-14.26,0,0-20.2,49.9-9.5,65.34,0,0,1.19-15.44,5.94-30.89,3.56-10.69,9.5-26.14,16.63-34.45s24.95-39.21,26.14-58.21c0-8.32,1.19-16.63,1.19-22.57-4.75-4.75,78.41-16.63,83.16-3.56,1.19,4.75,17.82,47.52,27.33,70.1,4.75,10.69,10.69,20.2,14.26,32.08,3.56,13.07,5.94,30.89,5.94,48.71,0,3.56,0,9.5-1.19,15.44,2.38,0,48.71-49.9-5.94-91.48,0,0,33.27,15.44,34.45,46.33,1.19,24.95-9.5,45.15-11.88,48.71,1.19,0,24.95,10.69,26.14,10.69,4.75,0,14.26-3.56,14.26-3.56,1.19-3.56,4.75-13.07,4.75-16.63,8.32-27.33-11.88-71.28-30.89-98.61Z"/>
    <path id="foot-right" class="cls-1" d="m187.72,390.56c-11.88-19.01-13.07-22.57-21.39-34.45-7.13-11.88-22.57-34.45-32.08-34.45-7.13,0-10.69,3.56-15.44,8.32-4.75,4.75-9.5,15.44-17.82,21.39-7.13,5.94-27.33,4.75-32.08,11.88-4.75,7.13,4.75,17.82,4.75,35.64,0,7.13-5.94,11.88-7.13,16.63-1.19,5.94-2.38,9.5,0,14.26,4.75,7.13,10.69,9.5,51.09,17.82,21.39,4.75,41.58,16.63,54.65,17.82s35.64,0,35.64-32.08c1.19-19.01-9.5-23.76-20.2-42.77Z"/>
    <path id="foot-left" class="cls-1" d="m426.52,386.99c-4.75-2.38-13.07-5.94-20.2-16.63-3.56-5.94-2.38-22.57-8.32-29.7-3.56-4.75-8.32-2.38-9.5-2.38-10.69,2.38-35.64,19.01-52.27,0-2.38-2.38-5.94-5.94-11.88-5.94s-8.32,2.38-10.69,7.13-2.38,8.32-2.38,20.2c0,9.5,0,20.2-1.19,28.51-2.38,20.2-5.94,32.08-5.94,43.96,0,13.07,3.56,21.39,8.32,24.95,3.56,3.56,9.5,5.94,22.57,5.94s21.39-4.75,29.7-13.07c5.94-5.94,10.69-8.32,27.33-20.2,13.07-8.32,33.27-19.01,36.83-22.57,2.38-2.38,5.94-3.56,5.94-10.69,0-5.94-4.75-8.32-8.32-9.5Z"/>
    <path id="hand-left" class="cls-4" d="m339.79,352.54v3.56c2.38,4.75,8.32,5.94,13.07,5.94,7.13,0,14.26-4.75,17.82-9.5,0-1.19,1.19-2.38,2.38-3.56,2.38-3.56,3.56-5.94,4.75-7.13,0,0-1.19-1.19-1.19-2.38-1.19-2.38-4.75-4.75-9.5-5.94-3.56-1.19-9.5-2.38-11.88-2.38-10.69-1.19-16.63,2.38-20.2,5.94,0,0,1.19,0,1.19,1.19,2.38,2.38,3.56,4.75,3.56,8.32,1.19,2.38,0,3.56,0,5.94Z"/>
    <g id="eyes">
      <ellipse id="eye-right-background" class="cls-2" cx="216.23" cy="122.05" rx="15.44" ry="23.76"/>
      <ellipse id="eye-left-background" class="cls-2" cx="269.69" cy="120.87" rx="20.2" ry="27.33"/>
      <ellipse id="eye-right" class="cls-3" cx="216.61" cy="124.72" rx="8.32" ry="14.26" transform="translate(-13.93 28.15) rotate(-7.2)"/>
      <ellipse id="eye-left" class="cls-3" cx="268.51" cy="125.62" rx="11.88" ry="15.44"/>
    </g>
    <g id="beak">
      <path id="beak-background" class="cls-1" d="m210.29,175.52c-7.13-4.75-13.07-9.5-13.07-16.63s4.75-9.5,11.88-15.44c1.19-1.19,14.26-13.07,27.33-13.07s28.51,8.32,34.45,10.69c10.69,2.38,21.39,4.75,20.2,13.07-1.19,11.88-2.38,14.26-14.26,20.2-8.32,2.38-23.76,15.44-34.45,15.44-4.75,0-11.88,0-16.63-1.19-3.56-1.19-9.5-7.13-15.44-13.07Z"/>
      <path id="smile" class="cls-5" d="m207.92,166.01c2.38,2.38,5.94,4.75,9.5,5.94,2.38,1.19,5.94,2.38,5.94,2.38h10.69c5.94,0,14.26-2.38,22.57-7.13,8.32-3.56,9.5-5.94,15.44-8.32,5.94-3.56,11.88-7.13,9.5-8.32s-4.75,0-13.07,4.75c-7.13,4.75-13.07,7.13-20.2,10.69-3.56,1.19-8.32,3.56-11.88,3.56h-10.69c-3.56,0-5.94-1.19-9.5-2.38-2.38-1.19-3.56-2.38-4.75-2.38-2.38-1.19-7.13-5.94-9.5-7.13,0,0-2.38,0-1.19,1.19,3.56,3.56,4.75,4.75,7.13,7.13Z"/>
      <path id="nostril-left" class="cls-5" d="m243.56,139.88c1.19,2.38,3.56,2.38,4.75,3.56,1.19,1.19,2.38,1.19,2.38,1.19,1.19-1.19,0-3.56-1.19-3.56,0-2.38-5.94-2.38-5.94-1.19Z"/>
      <path id="nostril-right" class="cls-5" d="m224.55,142.25c0,1.19,2.38,2.38,2.38,1.19,1.19-1.19,2.38-2.38,3.56-2.38,2.38-1.19,1.19-2.38-2.38-2.38-2.38,1.19-2.38,2.38-3.56,3.56Z"/>
    </g>
  </g>
</svg>