<?xml version="1.0" encoding="UTF-8"?>
<svg id="nextjs" xmlns="http://www.w3.org/2000/svg" width="500" height="500" viewBox="0 0 500 500">
  <g id="nextjs-2" data-name="nextjs">
    <path id="letter-s" d="m456.08,295.59c.31,4.91,4.41,8.06,10.53,8.06,6.54,0,10.63-3.29,10.63-8.55,0-4.13-2.33-6.42-7.99-7.73l-3.04-.74c-3.59-.84-5.05-1.96-5.05-3.92,0-2.48,2.26-4.09,5.64-4.09s5.43,1.58,5.83,4.11h4.17c-.25-4.63-4.34-7.88-9.94-7.88-6.02,0-10.03,3.26-10.03,8.15,0,4.04,2.27,6.44,7.26,7.6l3.55.86c3.65.86,5.26,2.11,5.26,4.21,0,2.44-2.52,4.21-5.96,4.21-3.69,0-6.25-1.66-6.61-4.27h-4.24Z"/>
    <path id="letter-j" d="m433.55,295.84c0,4.72,3.42,7.81,8.41,7.81,5.31,0,8.52-3.18,8.52-8.7v-19.44h-4.28v19.43c0,3.07-1.55,4.7-4.28,4.7-2.45,0-4.11-1.52-4.17-3.79h-4.2Z"/>
    <ellipse id="dot" cx="425.83" cy="300.47" rx="2.81" ry="2.84"/>
    <polygon id="letter-t" points="328.94 191.52 328.94 184.73 426.62 184.73 426.62 191.52 381.62 191.52 381.62 312.13 373.76 312.13 373.76 191.52 328.94 191.52"/>
    <path id="letter-x" d="m223.4,184.73h9.11l40.36,56.03,41.25-56.03,56.11-71.17-92.18,133.08,47.5,65.48h-9.46l-43.22-59.6-43.4,59.6h-9.29l47.86-65.48-44.65-61.91Z"/>
    <polygon id="letter-e" points="130 184.73 215.72 184.73 215.72 191.52 137.86 191.52 137.86 242.55 211.07 242.55 211.07 249.33 137.86 249.33 137.86 305.35 216.61 305.35 216.61 312.13 130 312.13 130 184.73"/>
    <polygon id="letter-n" points="22.76 184.73 32.58 184.73 168.02 386.43 112.05 312.13 30.98 194.37 30.62 312.13 22.76 312.13 22.76 184.73"/>
  </g>
</svg>