<?xml version="1.0" encoding="UTF-8"?>
<svg id="nodejs" xmlns="http://www.w3.org/2000/svg" width="500" height="500" xmlns:xlink="http://www.w3.org/1999/xlink" viewBox="0 0 500 500">
  <defs>
    <style>
      .cls-1 {
        fill: url(#linear-gradient);
      }

      .cls-2, .cls-3 {
        fill: #689f63;
      }

      .cls-4 {
        fill: url(#linear-gradient-3);
      }

      .cls-5 {
        fill: url(#linear-gradient-4);
      }

      .cls-6 {
        fill: url(#linear-gradient-2);
      }

      .cls-7 {
        fill: url(#linear-gradient-5);
      }

      .cls-8 {
        fill: #333;
      }

      .cls-8, .cls-3 {
        fill-rule: evenodd;
      }
    </style>
    <linearGradient id="linear-gradient" x1="1063.53" y1="756.48" x2="1064.71" y2="756.48" gradientTransform="translate(-24157.94 -148355.1) rotate(116.11) scale(115.31 -115.31)" gradientUnits="userSpaceOnUse">
      <stop offset=".3" stop-color="#3e863d"/>
      <stop offset=".5" stop-color="#55934f"/>
      <stop offset=".8" stop-color="#5aad45"/>
    </linearGradient>
    <linearGradient id="linear-gradient-2" x1="1056.39" y1="770.44" x2="1057.15" y2="770.44" gradientTransform="translate(-69223.89 221152.54) rotate(-36.46) scale(177.06 -177.06)" gradientUnits="userSpaceOnUse">
      <stop offset=".57" stop-color="#3e863d"/>
      <stop offset=".72" stop-color="#619857"/>
      <stop offset="1" stop-color="#76ac64"/>
    </linearGradient>
    <linearGradient id="linear-gradient-3" y1="757.17" y2="757.17" xlink:href="#linear-gradient"/>
    <linearGradient id="linear-gradient-4" y1="770.58" y2="770.58" xlink:href="#linear-gradient-2"/>
    <linearGradient id="linear-gradient-5" x1="149.63" y1="230.56" x2="239.43" y2="230.56" gradientUnits="userSpaceOnUse">
      <stop offset=".16" stop-color="#6bbf47"/>
      <stop offset=".38" stop-color="#79b461"/>
      <stop offset=".47" stop-color="#75ac64"/>
      <stop offset=".7" stop-color="#659e5a"/>
      <stop offset=".9" stop-color="#3e863d"/>
    </linearGradient>
  </defs>
  <g id="nodejs-2" data-name="nodejs">
    <path id="letter-s" class="cls-2" d="m259.6,351.58c-17.12,0-20.71-7.86-20.71-14.45,0-.63.51-1.13,1.13-1.13h5.05c.56,0,1.03.41,1.12.96.76,5.15,3.04,7.75,13.39,7.75,8.25,0,11.75-1.86,11.75-6.24,0-2.52-1-4.39-13.81-5.64-10.72-1.06-17.34-3.42-17.34-11.99,0-7.9,6.66-12.6,17.82-12.6,12.53,0,18.74,4.35,19.52,13.69.03.32-.09.64-.3.87-.22.23-.52.36-.83.36h-5.08c-.53,0-.99-.37-1.1-.88-1.22-5.42-4.18-7.15-12.22-7.15-9,0-10.05,3.13-10.05,5.49,0,2.85,1.23,3.68,13.38,5.29,12.03,1.6,17.74,3.85,17.74,12.3s-7.11,13.41-19.51,13.41"/>
    <path id="letter-j" class="cls-2" d="m247.51,382.69c-1.43,0-2.85-.38-4.1-1.1l-13.06-7.73c-1.95-1.09-1-1.48-.36-1.7,2.6-.91,3.13-1.12,5.91-2.69.29-.17.67-.11.97.07l10.04,5.96c.36.2.88.2,1.21,0l39.13-22.59c.36-.21.6-.63.6-1.06v-45.16c0-.45-.24-.85-.61-1.08l-39.12-22.57c-.36-.22-.84-.22-1.2,0l-39.11,22.57c-.38.22-.62.64-.62,1.07v45.16c0,.43.24.84.61,1.05l10.72,6.19c5.82,2.91,9.37-.52,9.37-3.97v-44.57c0-.64.5-1.13,1.14-1.13h4.96c.62,0,1.13.49,1.13,1.13v44.59c0,7.76-4.23,12.21-11.59,12.21-2.26,0-4.05,0-9.02-2.45l-10.27-5.92c-2.54-1.47-4.1-4.21-4.1-7.14v-45.16c0-2.94,1.57-5.68,4.1-7.13l39.17-22.6c2.48-1.4,5.77-1.4,8.23,0l39.12,22.61c2.53,1.46,4.1,4.19,4.1,7.13v45.16c0,2.93-1.58,5.66-4.1,7.13l-39.12,22.6c-1.25.72-2.67,1.1-4.12,1.1"/>
    <path id="letter-e-dot" class="cls-3" d="m419.81,220.35c.29-.17.66-.17.96,0l7.96,4.59c.3.17.48.49.48.83v9.2c0,.34-.18.66-.48.83l-7.96,4.59c-.3.17-.67.17-.96,0l-7.96-4.59c-.3-.17-.49-.49-.49-.83v-9.2c0-.34.18-.66.48-.83l7.97-4.59Z"/>
    <path id="letter-e" class="cls-8" d="m464.17,222.6c1.54-.9,2.49-2.55,2.49-4.33v-11.61c0-1.79-.95-3.44-2.49-4.33l-41.24-23.94c-1.56-.9-3.47-.9-5.03,0l-41.49,23.95c-1.56.9-2.51,2.55-2.51,4.34v47.9c0,1.8.97,3.47,2.53,4.36l41.23,23.5c1.52.87,3.38.88,4.92.03l24.94-13.86c.78-.44,1.28-1.27,1.28-2.17s-.48-1.74-1.26-2.18l-41.75-23.96c-.78-.44-1.26-1.27-1.26-2.16v-15.03c0-.9.47-1.72,1.25-2.17l12.99-7.49c.77-.45,1.72-.45,2.5,0l13,7.49c.77.44,1.25,1.27,1.25,2.16v11.81c0,.89.48,1.72,1.25,2.17.77.44,1.73.44,2.51,0l24.89-14.46Z"/>
    <path id="letter-d" class="cls-8" d="m322.11,239.48c0,.45-.24.86-.63,1.08l-14.25,8.21c-.39.22-.86.22-1.25,0l-14.25-8.21c-.39-.22-.63-.64-.63-1.08v-16.45c0-.45.24-.86.62-1.09l14.24-8.23c.39-.23.87-.23,1.26,0l14.25,8.23c.39.23.63.64.63,1.09v16.45Zm3.85-121.86c-.78-.43-1.72-.42-2.49.03-.76.45-1.24,1.27-1.24,2.16v63.67c0,.63-.33,1.2-.88,1.52-.54.31-1.21.31-1.75,0l-10.39-5.99c-1.55-.9-3.45-.9-5.01,0l-41.5,23.95c-1.55.89-2.51,2.55-2.51,4.33v47.92c0,1.79.96,3.44,2.51,4.34l41.5,23.97c1.55.89,3.46.89,5.01,0l41.5-23.98c1.55-.9,2.51-2.55,2.51-4.34v-119.43c0-1.82-.99-3.49-2.58-4.38l-24.69-13.78Z"/>
    <g id="letter-o">
      <path id="left" class="cls-1" d="m164.45,229.37l-14.82-27-.12.07c-1.55.89-2.49,2.54-2.49,4.32v47.67c0,1.11.37,2.17,1.02,3.03l16.41-28.08Z"/>
      <path id="bottom" class="cls-6" d="m193.99,283.17l-29.54-53.8-16.41,28.08s.02.02.03.04c.17.21.35.41.55.59.06.05.12.11.18.16.21.18.44.35.68.49,0,0,.02.01.03.02l35.99,20.79,5.31,3.05c.43.25.9.43,1.37.54.03,0,.05,0,.08.01.2.04.4.07.6.09.06,0,.12,0,.18.01.16,0,.32,0,.48,0,.08,0,.17,0,.25-.02.08,0,.15-.03.23-.04Z"/>
      <path id="right" class="cls-4" d="m238.18,203.36l-14.07,25.76,15.32,26.18c.05-.29.09-.58.09-.88v-47.67c0-1.28-.49-2.48-1.34-3.39Z"/>
      <path id="top" class="cls-5" d="m224.11,229.12l14.07-25.76s-.05-.06-.08-.09c-.06-.06-.12-.11-.18-.17-.11-.1-.22-.21-.34-.3-.03-.02-.07-.04-.1-.07-.15-.11-.3-.21-.46-.31l-31.3-18.07-10-5.75c-.4-.23-.84-.4-1.28-.51,0,0,0,0-.01,0l-.09.16,29.78,50.87Z"/>
      <path id="oblique" class="cls-7" d="m239.43,255.3c-.26,1.43-1.12,2.7-2.4,3.44l-41.27,23.84s-.06.03-.09.04c-.21.12-.43.22-.65.3-.08.03-.16.05-.24.08-.04.01-.08.02-.11.03-.11.03-.22.05-.33.08-.12.02-.23.04-.35.06l-29.54-53.8-14.82-27,10.33-5.97,30.82-17.79c.29-.16.6-.29.92-.4.03,0,.06-.02.09-.03.31-.1.63-.16.95-.2.05,0,.11,0,.16-.01.1-.01.2-.01.3-.01h.01c.34,0,.67.03,1,.1l.12.19,29.78,50.87,15.32,26.18Z"/>
    </g>
    <path id="letter-n" class="cls-8" d="m126.33,206c0-1.8-.95-3.46-2.51-4.35l-41.49-23.87c-.7-.41-1.48-.63-2.28-.66h-.43c-.8.03-1.58.24-2.29.66l-41.49,23.87c-1.55.9-2.51,2.56-2.51,4.36l.09,64.3c0,.89.46,1.72,1.24,2.16.76.47,1.72.47,2.49,0l24.66-14.13c1.56-.93,2.51-2.56,2.51-4.35v-30.04c0-1.79.95-3.45,2.5-4.34l10.5-6.05c.78-.45,1.64-.67,2.51-.67s1.73.22,2.49.67l10.5,6.05c1.55.89,2.51,2.55,2.51,4.34v30.04c0,1.78.96,3.43,2.51,4.35l24.65,14.12c.77.46,1.74.46,2.51,0,.76-.44,1.24-1.27,1.24-2.16l.08-64.29Z"/>
  </g>
</svg>