<?xml version="1.0" encoding="UTF-8"?>
<svg id="projects" xmlns="http://www.w3.org/2000/svg" width="500" height="500" viewBox="0 0 500 500">
  <g id="projects-2" data-name="projects">
    <path id="projects-3" data-name="projects" d="m469.36,250c0,121.15-98.21,219.36-219.36,219.36S30.64,371.15,30.64,250c0-121.15,98.21-219.36,219.36-219.36s219.36,98.21,219.36,219.36h0Zm-117.23-53.14c0-56.5-45.8-102.3-102.3-102.3s-102.3,45.8-102.3,102.3h0c0,16,3.68,31.79,10.78,46.13,5.67,11.11,12.38,21.66,20.03,31.5,6.25,6.76,10.84,14.89,13.38,23.75v22.64c0,9.69,7.85,17.54,17.54,17.54,0,0,.02,0,.03,0h81.07c9.69,0,17.54-7.85,17.54-17.54h0v-22.64c2.54-8.85,7.13-16.99,13.38-23.75,7.67-9.85,14.38-20.39,20.06-31.5,7.1-14.34,10.79-30.13,10.78-46.13Zm-53.01,164.64c-.02-4.83-3.93-8.74-8.76-8.76h-81.1c-4.84-.27-8.99,3.43-9.26,8.28-.27,4.84,3.43,8.99,8.28,9.26.33.02.66.02.99,0h81.07c4.84-.02,8.76-3.94,8.76-8.78h.03Zm-13.11,25.85c-.61-1.78-2.28-2.97-4.16-2.96h-65.17c-2.42-.02-4.39,1.92-4.42,4.34-.01,1.37.62,2.66,1.7,3.5,20.76,16.14,49.81,16.14,70.57,0,1.48-1.14,2.07-3.1,1.47-4.88Z"/>
  </g>
</svg>