<?xml version="1.0" encoding="UTF-8"?>
<svg id="projects" xmlns="http://www.w3.org/2000/svg" width="500" height="500" viewBox="0 0 500 500">
  <g id="projects3">
    <path id="laptop-bottom" d="m448.81,408.92H31.22v19.58c0,15.04,12.24,27.28,27.28,27.28h383c15.04,0,27.28-12.24,27.28-27.28v-19.58h-19.96Z"/>
    <path id="laptop-screen-right" d="m421.54,116.2h-65.41c.22,2.79.34,5.62.34,8.47,0,10.2-1.44,20.18-4.2,29.73h58.36v228.53h38.2v-239.45c0-15.04-12.24-27.28-27.28-27.28Z"/>
    <path id="laptop-screen" d="m341.38,180.39c-4.16,8.11-9.09,15.65-14.72,22.47l-1.55,1.87c-5.22,6.56-9.51,14.01-12.76,22.08,4.35,4.45,7.04,10.53,7.04,17.22v26.65c0,11.89-8.46,21.83-19.67,24.14v6.85c0,20.63-16.79,37.42-37.42,37.42h-24.59c-20.63,0-37.42-16.79-37.42-37.42v-6.85c-11.21-2.31-19.67-12.26-19.67-24.14v-26.65c0-6.7,2.69-12.78,7.04-17.22-3.26-8.1-7.57-15.57-12.81-22.14l-1.5-1.81c-5.64-6.83-10.57-14.36-14.72-22.47h-43.26v202.53h269.25v-202.53h-43.25Z"/>
    <path id="laptop-screen-left" d="m143.55,124.67c0-2.85.12-5.67.34-8.47h-65.42c-15.04,0-27.28,12.24-27.28,27.28v239.45h38.2v-228.53h58.37c-2.76-9.54-4.2-19.53-4.2-29.73Z"/>
    <g id="bulb">
      <path id="bulb-bottom" d="m226.29,295.35v6.34c0,6.3,5.12,11.42,11.42,11.42h24.59c6.3,0,11.42-5.12,11.42-11.42v-6.34h-47.44Z"/>
      <rect id="bulb-middle" x="206.62" y="245.4" width="86.77" height="23.96"/>
      <path id="bulb-y" d="m250.01,44.22c-44.36,0-80.46,36.09-80.46,80.46,0,21.03,8.04,40.88,22.66,55.97l.36.35c9.52,9.49,16.87,20.72,21.71,33.05.69,1.76,1.33,3.54,1.92,5.35h20.83v-52.46l-44.68-44.68,18.38-18.38,39.29,39.29,39.29-39.29,18.38,18.38-44.68,44.68v52.46h20.83c4.69-14.43,12.74-27.55,23.62-38.4l.37-.37c14.61-15.08,22.65-34.93,22.65-55.96,0-44.36-36.09-80.46-80.46-80.46Z"/>
    </g>
  </g>
</svg>