<?xml version="1.0" encoding="UTF-8"?>
<svg id="projects" xmlns="http://www.w3.org/2000/svg" width="500" height="500" viewBox="0 0 500 500">
  <g id="projects2">
    <g id="bulb">
      <path id="circle" d="m250,30.64c-121.16,0-219.36,98.21-219.36,219.36s98.21,219.36,219.36,219.36,219.36-98.21,219.36-219.36S371.16,30.64,250,30.64Zm0,404.45c-102.22,0-185.09-82.86-185.09-185.09S147.78,64.91,250,64.91s185.09,82.86,185.09,185.09-82.86,185.09-185.09,185.09Z"/>
      <path id="bulb-bottom" d="m250,359.68c15.14,0,27.42-12.28,27.42-27.42h-54.84c0,15.14,12.28,27.42,27.42,27.42Z"/>
      <path id="bulb-top" d="m250,140.32c-45.43,0-82.26,36.83-82.26,82.26,0,32.37,18.74,60.3,45.95,73.72l8.89,22.25h54.84l8.89-22.25c27.19-13.42,45.95-41.34,45.95-73.72,0-45.43-36.83-82.26-82.26-82.26Z"/>
    </g>
  </g>
</svg>