<?xml version="1.0" encoding="UTF-8"?>
<svg id="repos" xmlns="http://www.w3.org/2000/svg" width="500" height="500" viewBox="0 0 500 500">
  <g id="repos-2" data-name="repos">
    <path id="folder" d="m109.73,70.5c-16.41,0-29.64,13.23-29.64,29.64v112.21l61.78-61.78c7.95-7.95,20.73-7.95,28.69,0l156.18,156.18c7.95,7.95,7.95,20.73,0,28.69l-60.88,60.88h194.36V124.81h-190.06v-24.66c0-16.41-13.23-29.64-29.64-29.64H109.73Z"/>
    <path id="git" d="m154.76,192.69c-3.48,0-6.95,1.33-9.61,3.99l-20.91,20.91,23.42,23.41c2.29-.78,4.69-1.18,7.1-1.19,12.33,0,22.32,9.99,22.32,22.32h0c0,2.42-.41,4.82-1.18,7.11l31.28,31.28c2.29-.78,4.69-1.18,7.1-1.19,12.33,0,22.32,9.99,22.32,22.32h0c0,12.33-9.99,22.32-22.32,22.32h0c-12.33,0-22.32-9.99-22.32-22.32h0c0-2.42.41-4.82,1.18-7.11l-28.47-28.47v75.13c7.59,3.76,12.39,11.5,12.4,19.97,0,12.33-9.99,22.32-22.32,22.32h0c-12.33,0-22.32-9.99-22.32-22.32h0c0-8.48,4.81-16.22,12.4-19.99v-79.1c-7.59-3.76-12.39-11.5-12.4-19.97,0-2.42.41-4.82,1.18-7.11l-23.41-23.41-80.43,80.43c-5.33,5.33-5.33,13.9,0,19.23l115.36,115.36c5.33,5.33,13.9,5.33,19.23,0l115.36-115.36c5.33-5.33,5.33-13.9,0-19.23l-115.36-115.36c-2.66-2.66-6.14-3.99-9.61-3.99Z"/>
  </g>
</svg>