<?xml version="1.0" encoding="UTF-8"?>
<svg id="rxjs" xmlns="http://www.w3.org/2000/svg" width="500" height="500" xmlns:xlink="http://www.w3.org/1999/xlink" viewBox="0 0 500 500">
  <defs>
    <style>
      .cls-1 {
        fill: url(#linear-gradient);
      }

      .cls-2 {
        fill: #ed168f;
      }

      .cls-3 {
        fill: url(#linear-gradient-2);
      }

      .cls-4 {
        fill: url(#radial-gradient);
      }
    </style>
    <linearGradient id="linear-gradient" x1="118.14" y1="623.52" x2="304.22" y2="821.49" gradientTransform="translate(0 1032) scale(1 -1)" gradientUnits="userSpaceOnUse">
      <stop offset="0" stop-color="#ec0b8e"/>
      <stop offset=".4" stop-color="#eb0b8e"/>
      <stop offset=".7" stop-color="#a11d8b"/>
      <stop offset="1" stop-color="#5c2e88"/>
    </linearGradient>
    <radialGradient id="radial-gradient" cx="322.33" cy="923.74" fx="322.33" fy="923.74" r="181.82" gradientTransform="translate(-1.25 929.63) rotate(.14) scale(1 -.84)" gradientUnits="userSpaceOnUse">
      <stop offset="0" stop-color="#ec0b8e"/>
      <stop offset=".16" stop-color="#e80c8e"/>
      <stop offset=".33" stop-color="#db0f8d"/>
      <stop offset=".5" stop-color="#c6148c"/>
      <stop offset=".67" stop-color="#a91b8b"/>
      <stop offset=".85" stop-color="#83248a"/>
      <stop offset="1" stop-color="#5c2e88"/>
    </radialGradient>
    <linearGradient id="linear-gradient-2" x1="162.6" y1="900.77" x2="243.56" y2="900.77" gradientTransform="translate(0 1032) scale(1 -1)" gradientUnits="userSpaceOnUse">
      <stop offset="0" stop-color="#ec0b8e"/>
      <stop offset=".37" stop-color="#e10e8f"/>
      <stop offset="1" stop-color="#c41693"/>
    </linearGradient>
  </defs>
  <g id="rxjs-2" data-name="rxjs">
    <path id="tail" class="cls-1" d="m367.7,357.57c34.41-14.98,49.06-40.91,49.06-40.91,32.19-43.88,21.16-89.98,21.16-89.98-20.42,44.62-39.1,56.8-39.1,56.8,50.38-76.8.25-123.15.25-123.15,20.42,43.63-6.75,96.97-6.75,96.97-22.97,48.07-55.32,65.28-55.32,65.28,36.14,6.75,62.81-17.7,62.81-17.7-51.86,56.06-108.17,53.34-108.17,53.34,23.71,26.42,59.11,24.2,59.11,24.2-46.43,10.87-89.81-4.53-125.7-34.24-6.75-5.6-13.17-11.52-19.1-17.95,0,0-5.35-5.68-6.42-7.24l-.08-.16c-.74,27.66,28.15,53.34,28.15,53.34-36.14-14.98-52.85-47.33-52.85-47.33,0,0-24.45-41.65-6.75-88.99,17.7-47.33,71.04-57.54,71.04-57.54,44.12,21.4,81.5,28.15,81.5,28.15,78.78,13.17,74.25-25.44,74.25-25.44.82-33.09-49.23-68.41-49.23-68.41-89.23-66.1-169.99-23.21-169.99-23.21-69.81,30.87-90.47,98.7-90.47,98.7-3.21,10.62-6.26,21.07-8.15,32.02-7.66,44.37,3.87,86.44,28.89,123.81,38.85,58.04,101.91,78.04,101.91,78.04,93.43,31.69,157.23-14.98,157.23-14.98,58.86-40.34,70.55-87.01,70.55-87.01-47.42,37.13-67.83,33.59-67.83,33.59Zm-73.02-218.15c4.53,0,8.15,3.62,8.15,8.15s-3.62,8.15-8.15,8.15-8.15-3.62-8.15-8.15,3.62-8.15,8.15-8.15Z"/>
    <path id="snout-back" class="cls-2" d="m82.38,300.19c-7.82-24.2-10.04-49.8-5.43-76.15,1.89-10.95,4.94-21.4,8.15-32.02,0,0,20.66-67.83,90.47-98.7,0,0,24.04-12.68,60.26-13.58,0,0-4.94-4.86-8.07-6.91-17.12-11.36-42.39-15.06-57.95.82-4.61,4.69-8.56,9.96-12.92,14.82-4.86,5.43-10.95,9.8-17.78,12.35-5.93,2.14-11.85,1.73-18.03,2.8-6.34,1.07-12.76,3.29-17.86,7.33-5.52,4.45-7.74,10.45-8.4,17.37-.58,5.43-.49,10.87-.74,16.22-.74,15.89-5.76,20.42-17.2,29.14-4.77,3.62-8.81,8.31-11.85,13.5-8.97,15.81,5.35,32.27,6.09,48.24.16,3.29-.25,6.59-1.32,9.63-1.23,3.38-3.54,5.68-5.6,8.56-2.63,3.7-4.45,8.23-3.79,12.84.74,4.61,3.05,8.97,5.43,12.92,4.36,7.16,9.71,13.67,15.48,19.67.41.49.74.82,1.07,1.15"/>
    <path id="snout-right" class="cls-4" d="m394.78,185.11c.74-33.17-49.31-68.57-49.31-68.57-89.23-66.02-169.99-23.13-169.99-23.13-69.81,30.87-90.47,98.7-90.47,98.7-3.95,11.44-7.57,29.14-7.57,29.14-4.45,22.14-2.39,42.56-2.39,42.56,1.81,19.51,6.17,32.76,6.17,32.76,4.45,14.08,6.59,18.44,6.59,18.44-.16-.49-.91-3.7-.91-3.7,0,0-6.26-30.29-.41-59.19,0,0,5.02-30.13,25.77-53.51,0,0,33.42-47.66,95.9-28.98,0,0,13.42,4.86,18.11,7.08,4.69,2.22,12.68,5.76,12.68,5.76,44.12,21.4,81.5,28.15,81.5,28.15,78.86,13.09,74.33-25.52,74.33-25.52Zm-100.1-29.47c-4.53,0-8.15-3.62-8.15-8.15s3.62-8.15,8.15-8.15,8.15,3.62,8.15,8.15-3.62,8.15-8.15,8.15Z"/>
    <path id="fin" class="cls-3" d="m243.56,125.02l-51.04-15.89c-.25,0-1.89-.74-4.45,0,0,0-30.13,7.66-24.86,24.12,0,0,3.21,10.29,11.61,20.42l56.06-2.63,12.68-26.01Z"/>
  </g>
</svg>