<?xml version="1.0" encoding="UTF-8"?>
<svg id="sass" xmlns="http://www.w3.org/2000/svg" width="500" height="500" viewBox="0 0 500 500">
  <defs>
    <style>
      .cls-1 {
        fill: #cd6799;
      }
    </style>
  </defs>
  <path id="sass-2" data-name="sass" class="cls-1" d="m412.99,275.34c-15.75.08-29.43,3.88-40.9,9.48-4.2-8.33-8.41-15.75-9.15-21.19-.82-6.35-1.81-10.22-.82-17.81.99-7.59,5.44-18.39,5.36-19.21s-.99-4.7-10.06-4.78-16.9,1.73-17.81,4.12-2.64,7.83-3.79,13.44c-1.57,8.25-18.14,37.68-27.62,53.1-3.05-6.02-5.69-11.3-6.27-15.5-.82-6.35-1.81-10.22-.82-17.81.99-7.59,5.44-18.39,5.36-19.21s-.99-4.7-10.06-4.78-16.9,1.73-17.81,4.12-1.9,8-3.79,13.44c-1.9,5.44-23.91,54.58-29.68,67.28-2.97,6.51-5.52,11.71-7.34,15.25h0s-.08.25-.33.66c-1.57,3.05-2.47,4.7-2.47,4.7v.08c-1.24,2.23-2.56,4.29-3.22,4.29-.49,0-1.4-5.94.16-14.02,3.3-17.07,11.13-43.62,11.05-44.52,0-.49,1.48-5.11-5.11-7.5-6.43-2.39-8.74,1.57-9.32,1.57s-.99,1.4-.99,1.4c0,0,7.17-29.85-13.69-29.85-13.03,0-31,14.26-39.91,27.13-5.61,3.05-17.56,9.56-30.34,16.57-4.86,2.72-9.89,5.44-14.59,8-.33-.33-.66-.74-.99-1.07-25.23-26.96-71.9-46.01-69.92-82.2.74-13.19,5.28-47.82,89.62-89.87,69.42-34.22,124.66-24.74,134.23-3.71,13.69,30.01-29.6,85.75-101.33,93.83-27.37,3.05-41.72-7.5-45.35-11.46-3.79-4.12-4.37-4.37-5.77-3.55-2.31,1.24-.82,4.95,0,7.09,2.14,5.61,10.97,15.5,25.89,20.37,13.19,4.29,45.27,6.68,84.1-8.33,43.45-16.82,77.42-63.57,67.44-102.73-9.98-39.74-75.94-52.85-138.35-30.67-37.1,13.19-77.34,33.97-106.28,61.01-34.38,32.16-39.82,60.11-37.6,71.81,8,41.55,65.3,68.6,88.22,88.63-1.15.66-2.23,1.24-3.13,1.73-11.46,5.69-55.16,28.53-66.04,52.69-12.37,27.37,1.98,47,11.46,49.63,29.43,8.16,59.69-6.51,75.94-30.75,16.24-24.24,14.26-55.74,6.76-70.17-.08-.16-.16-.33-.33-.49,2.97-1.73,6.02-3.55,8.99-5.28,5.85-3.46,11.63-6.68,16.57-9.32-2.8,7.67-4.86,16.82-5.85,30.01-1.24,15.5,5.11,35.62,13.44,43.53,3.71,3.46,8.08,3.55,10.88,3.55,9.73,0,14.1-8.08,18.96-17.64,5.94-11.71,11.3-25.31,11.3-25.31,0,0-6.68,36.77,11.46,36.77,6.6,0,13.27-8.57,16.24-12.94v.08s.16-.25.49-.82c.66-1.07,1.07-1.73,1.07-1.73v-.16c2.64-4.62,8.57-15.09,17.4-32.49,11.38-22.43,22.34-50.46,22.34-50.46,0,0,.99,6.84,4.37,18.22,1.98,6.68,6.1,14.02,9.4,21.11-2.64,3.71-4.29,5.77-4.29,5.77l.08.08c-2.14,2.8-4.45,5.85-7.01,8.82-8.99,10.72-19.71,23-21.19,26.55-1.73,4.2-1.32,7.26,1.98,9.73,2.39,1.81,6.68,2.06,11.05,1.81,8.08-.58,13.77-2.56,16.57-3.79,4.37-1.57,9.48-3.96,14.26-7.5,8.82-6.51,14.18-15.83,13.69-28.12-.25-6.76-2.47-13.52-5.19-19.87.82-1.15,1.57-2.31,2.39-3.46,13.93-20.37,24.74-42.71,24.74-42.71,0,0,.99,6.84,4.37,18.22,1.65,5.77,5.03,12.04,8,18.14-13.11,10.64-21.19,23-24.08,31.08-5.19,15.01-1.15,21.77,6.51,23.33,3.46.74,8.41-.91,12.04-2.47,4.62-1.48,10.06-4.04,15.25-7.83,8.82-6.51,17.31-15.58,16.82-27.87-.25-5.61-1.73-11.13-3.79-16.49,11.13-4.62,25.48-7.17,43.78-5.03,39.25,4.62,47,29.1,45.51,39.41-1.48,10.31-9.73,15.91-12.45,17.64-2.72,1.73-3.63,2.31-3.38,3.55.33,1.81,1.65,1.73,3.96,1.4,3.22-.58,20.61-8.33,21.35-27.29,1.24-24.24-21.85-50.71-62.66-50.46Zm-302.76,102.07c-13.03,14.18-31.17,19.54-39,15.01-8.41-4.86-5.11-25.81,10.88-40.81,9.73-9.15,22.26-17.64,30.59-22.84,1.9-1.15,4.7-2.8,8.08-4.86.58-.33.91-.49.91-.49h0c.66-.41,1.32-.82,1.98-1.24,5.85,21.44.25,40.32-13.44,55.24Zm94.82-64.48c-4.53,11.05-14.02,39.33-19.79,37.76-4.95-1.32-8-22.76-.99-43.95,3.55-10.64,11.05-23.33,15.42-28.28,7.09-7.92,14.92-10.55,16.82-7.34,2.39,4.2-8.66,34.88-11.46,41.8Zm78.25,37.43c-1.9.99-3.71,1.65-4.53,1.15-.58-.33.82-1.65.82-1.65,0,0,9.81-10.55,13.69-15.34,2.23-2.8,4.86-6.1,7.67-9.81v1.07c0,12.61-12.2,21.11-17.64,24.57Zm60.35-13.77c-1.4-.99-1.15-4.29,3.55-14.59,1.81-4.04,6.1-10.8,13.44-17.31.82,2.64,1.4,5.19,1.32,7.59-.08,15.91-11.46,21.85-18.3,24.32Z"/>
</svg>