<?xml version="1.0" encoding="UTF-8"?>
<svg id="typescript" xmlns="http://www.w3.org/2000/svg" width="500" height="500" viewBox="0 0 500 500">
  <defs>
    <style>
      .cls-1 {
        fill: #3178c6;
      }

      .cls-2 {
        fill: #fff;
        fill-rule: evenodd;
      }
    </style>
  </defs>
  <g id="typescript-2" data-name="typescript">
    <rect id="background" class="cls-1" x="46.37" y="46.37" width="407.27" height="407.27" rx="39.77" ry="39.77"/>
    <path id="text" class="cls-2" d="m298.47,370.45v39.82c6.47,3.32,14.13,5.81,22.97,7.47,8.84,1.66,18.15,2.49,27.95,2.49s18.61-.91,27.2-2.74c8.59-1.82,16.12-4.83,22.6-9.02,6.47-4.19,11.6-9.66,15.37-16.43,3.78-6.76,5.66-15.12,5.66-25.07,0-7.22-1.08-13.54-3.24-18.98-2.16-5.43-5.27-10.27-9.34-14.5-4.07-4.23-8.94-8.03-14.63-11.39-5.69-3.36-12.1-6.53-19.23-9.52-5.23-2.16-9.92-4.25-14.07-6.28-4.15-2.03-7.68-4.11-10.58-6.22-2.9-2.12-5.15-4.36-6.72-6.72-1.58-2.36-2.37-5.04-2.37-8.03,0-2.74.71-5.21,2.12-7.4s3.4-4.09,5.98-5.66c2.57-1.58,5.73-2.8,9.46-3.67,3.74-.87,7.88-1.31,12.45-1.31,3.32,0,6.83.25,10.52.75,3.69.5,7.41,1.27,11.14,2.3,3.73,1.04,7.36,2.34,10.89,3.92,3.53,1.58,6.78,3.4,9.77,5.48v-37.21c-6.06-2.32-12.68-4.04-19.86-5.16-7.18-1.12-15.42-1.68-24.71-1.68s-18.42,1.02-26.89,3.05c-8.47,2.03-15.91,5.21-22.35,9.52-6.43,4.31-11.51,9.81-15.25,16.49-3.73,6.68-5.6,14.66-5.6,23.95,0,11.86,3.42,21.98,10.27,30.36,6.85,8.38,17.24,15.47,31.18,21.28,5.48,2.24,10.58,4.44,15.31,6.59,4.73,2.16,8.82,4.4,12.26,6.72,3.44,2.32,6.16,4.85,8.15,7.59,1.99,2.74,2.99,5.85,2.99,9.33,0,2.57-.62,4.96-1.87,7.15-1.24,2.2-3.13,4.11-5.66,5.72s-5.69,2.88-9.46,3.8c-3.78.91-8.2,1.37-13.26,1.37-8.63,0-17.18-1.51-25.65-4.54-8.47-3.03-16.31-7.57-23.53-13.63h0Zm-66.94-98.11h51.08v-32.68h-142.38v32.68h50.83v145.5h40.47v-145.5Z"/>
  </g>
</svg>