<?xml version="1.0" encoding="utf-8"?>
<!-- Generator: Adobe Illustrator 27.5.0, SVG Export Plug-In . SVG Version: 6.00 Build 0)  -->
<svg version="1.1" id="light" xmlns="http://www.w3.org/2000/svg" xmlns:xlink="http://www.w3.org/1999/xlink" x="0px" y="0px"
	 viewBox="0 0 50 50" style="enable-background:new 0 0 50 50;" xml:space="preserve">
<style type="text/css">
	.st0{fill:#889B4C;}
	.st1{fill:#78873A;}
	.st2{fill:#B9D67C;}
	.st3{fill:#FFFFFF;}
	.st4{fill:#9FBA5D;}
</style>
<g id="yoda_00000029740778411121592990000016955895513054451895_">
	<path class="st0" d="M36.3,29.3c0,0,0.6-4.3,0.5-5.7c0,0,1.8,0.7,4.2-0.2c2.4-0.9,2.9-0.5,3.9-1.4c1-0.9,5.1-1.5,5.1-1.5
		s-2.9,2.9-4.2,4.1c-1.3,1.3-2.3,2-3.7,2.8C40.8,28.3,36.9,29.6,36.3,29.3z"/>
	<path class="st0" d="M13.5,29.2c0,0-0.4-3.6-0.2-5c0,0-1,0.1-3.4-0.8c-2.4-0.9-3.4,0.2-4.4-0.7c-1-0.9-5.4-2.2-5.4-2.2
		s3.1,2.9,4.4,4.2c1.3,1.3,2.3,2,3.7,2.8C9.5,28.3,12.8,29.5,13.5,29.2z"/>
	<g>
		<g>
			<path class="st1" d="M13.9,27.6C13.9,27.6,13.9,27.6,13.9,27.6l-3.5-0.4c-0.3,0-0.4-0.3-0.4-0.6c0-0.3,0.3-0.4,0.6-0.4l3.4,0.4
				c0.3,0,0.4,0.3,0.4,0.6C14.4,27.4,14.2,27.6,13.9,27.6z"/>
		</g>
		<g>
			<path class="st1" d="M36.4,27.6c-0.2,0-0.4-0.2-0.5-0.4c0-0.3,0.1-0.5,0.4-0.6l2.8-0.3c0.3,0,0.5,0.1,0.6,0.4
				c0,0.3-0.1,0.5-0.4,0.6L36.4,27.6C36.4,27.6,36.4,27.6,36.4,27.6z"/>
		</g>
	</g>
	<g>
		<path class="st2" d="M44.4,19.9c-3,0.8-3.3,0.3-5.7,0.1c-0.8-0.1-1.4-0.1-2.1,0l-0.1-0.5c-0.5-1.7-1.7-3.1-2.9-4.1
			c-0.2-0.2-0.5-0.4-0.7-0.6c-0.6-0.5-1.2-0.8-1.5-1c-0.2-0.1-0.3-0.2-0.3-0.2c-0.1-0.2-0.2-0.3-0.4-0.5c-0.9-0.9-2.6-1.2-3.8-1.3v0
			h0c-0.9-0.1-1.6,0-1.7,0h-0.2c0,0-3.6-0.3-5.3,1.2c-0.2,0.2-0.4,0.4-0.6,0.6c0,0,0,0-0.1,0.1c-0.2,0.1-0.7,0.4-1.3,0.9
			c-0.1,0.1-0.2,0.2-0.4,0.3c-0.1,0.1-0.3,0.2-0.4,0.3c-0.6,0.5-1.2,1-1.7,1.7c-0.7,0.8-1.3,1.7-1.6,2.8L13.4,20
			c-0.6-0.1-1.3-0.1-2.1,0c-2.5,0.3-2.7,0.7-5.8-0.1C2.5,19.1,0,20.5,0,20.5s4.8,1.6,5.9,2.7c1.1,1,4.9,2,6.8,1.3
			c0,0,0.3,5.1,1.7,6.5l4.9,5.8c0,0,2.1,1.8,5.2,1.6h1.2c3.1,0.2,5.2-1.6,5.2-1.6l4.9-5.8c1.4-1.4,1.7-6.5,1.7-6.5
			c1.8,0.6,5.6-0.3,6.8-1.3c1.1-1,5.9-2.7,5.9-2.7S47.5,19.1,44.4,19.9z"/>
	</g>
	<path class="st3" d="M17.3,25.1c0,0-0.5,2,1.9,2c0,0,1.6,0.3,1.5-2"/>
	<path class="st0" d="M15.3,25.1c0,0,0.9-3.3,4-3.1c0,0,3.2,0.2,3.9,3.1"/>
	<path class="st0" d="M34.9,25.1c0,0-0.9-3.3-4-3.1c0,0-3.2,0.2-3.9,3.1"/>
	<path class="st3" d="M32.9,25.1c0,0,0.5,2-1.9,2c0,0-1.6,0.3-1.5-2"/>
	<g>
		<g>
			<path class="st0" d="M19.1,27.9c-1.8,0-3-0.7-3-0.8c-0.2-0.1-0.3-0.4-0.1-0.7c0.1-0.2,0.4-0.3,0.7-0.2c0.1,0.1,2.3,1.4,5.2,0
				c0.2-0.1,0.5,0,0.6,0.2c0.1,0.2,0,0.5-0.2,0.6C21,27.7,20,27.9,19.1,27.9z"/>
		</g>
		<g>
			<path class="st0" d="M31.1,27.9c-0.9,0-2-0.2-3.1-0.8c-0.2-0.1-0.3-0.4-0.2-0.6c0.1-0.2,0.4-0.3,0.6-0.2c2.9,1.4,5.2,0,5.2,0
				c0.2-0.1,0.5-0.1,0.7,0.1c0.1,0.2,0.1,0.5-0.1,0.7C34.1,27.2,32.9,27.9,31.1,27.9z"/>
		</g>
	</g>
	<path class="st4" d="M27.4,28.1l-1.3-4.6c-0.1-0.3-0.3-0.4-0.6-0.3c-0.3,0.1-0.4,0.3-0.3,0.6l1.2,4.3L25,28.6l-1.2-0.5l1.2-4.4
		c0.1-0.3-0.1-0.5-0.3-0.6c-0.3-0.1-0.5,0.1-0.6,0.3L22.8,28c-0.8,0.4-3.4,1.9-3.5,6.5c0,0.3,0.2,0.5,0.5,0.5c0.2,0,0.5-0.2,0.5-0.5
		c0-0.5,0-0.9,0.1-1.2h9.3c0,0.4,0.1,0.8,0.1,1.2c0,0.3,0.2,0.5,0.5,0.5c0,0,0,0,0,0c0.3,0,0.5-0.2,0.5-0.5
		C30.8,30.3,28.3,28.6,27.4,28.1z M20.6,32.3c0.6-2.3,2.1-3.2,2.6-3.4l1.6,0.7c0.1,0.1,0.3,0.1,0.4,0l1.7-0.7c0.5,0.3,2,1.2,2.6,3.4
		C29.5,32.3,20.6,32.3,20.6,32.3z"/>
	<g>
		<g>
			<path class="st4" d="M20.1,20.2c-0.1,0-0.1,0-0.2,0c-0.2,0-0.4-0.1-0.4-0.3c0,0-1.4-3.5-2.7-5c0.1-0.1,0.3-0.2,0.4-0.3
				c0.1-0.1,0.2-0.2,0.4-0.3c1.4,1.7,2.8,5.1,2.9,5.2C20.5,19.9,20.4,20.1,20.1,20.2z"/>
		</g>
		<g>
			<path class="st4" d="M23.4,20c-0.1,0-0.1,0-0.2,0c-0.2,0-0.4-0.1-0.4-0.3c0-0.1-1.8-4-3.9-6.2c0.1,0,0.1-0.1,0.1-0.1
				c0.2-0.2,0.3-0.4,0.6-0.6c2.2,2.3,4,6.3,4.1,6.5C23.7,19.6,23.6,19.9,23.4,20z"/>
		</g>
		<g>
			<path class="st4" d="M33.6,15.3c-1.3,1.5-2.9,4.7-2.9,4.7c-0.1,0.2-0.3,0.3-0.4,0.3c-0.1,0-0.2,0-0.2-0.1
				c-0.2-0.1-0.3-0.4-0.2-0.6c0.1-0.2,1.7-3.3,3.1-4.9C33.1,14.8,33.3,15.1,33.6,15.3z"/>
		</g>
		<g>
			<path class="st4" d="M31.3,13.6c-2.1,2.2-3.9,5.9-3.9,6c-0.1,0.2-0.3,0.3-0.4,0.3c-0.1,0-0.1,0-0.2,0c-0.2-0.1-0.3-0.4-0.2-0.6
				c0.1-0.2,1.8-3.9,4.1-6.2c0.1,0.1,0.3,0.3,0.4,0.5C31,13.4,31.1,13.5,31.3,13.6z"/>
		</g>
	</g>
	<g>
		<path class="st4" d="M17.1,31.5c-0.1,0-0.2,0-0.3-0.1c-0.4-0.4-1.1-1.5-1.3-1.8c-0.1-0.2-0.1-0.5,0.2-0.7c0.2-0.1,0.5-0.1,0.7,0.2
			c0.3,0.5,0.8,1.3,1.1,1.5c0.2,0.2,0.2,0.5,0.1,0.7C17.3,31.5,17.2,31.5,17.1,31.5z"/>
	</g>
	<path class="st4" d="M13.4,20c0,0,1.2,0,2,0.4c0,0-0.5-1-1.8-1.4C13.6,19,13.5,19.4,13.4,20z"/>
	<path class="st4" d="M36.6,20c0,0-0.7,0-1.7,0.4c0,0,0.6-1.2,1.5-1.4C36.4,19,36.7,19.5,36.6,20z"/>
</g>
</svg>
